<svg width="25" height="26" viewBox="0 0 25 26" fill="none" xmlns="http://www.w3.org/2000/svg">
<path d="M8.61755 11.2699V9.2699H6.61755V13.7699C6.61755 14.046 6.39369 14.2699 6.11755 14.2699C5.84141 14.2699 5.61755 14.046 5.61755 13.7699V8.2699H8.61755C8.61755 5.86618 10.5698 4.2699 12.6176 4.2699C14.6751 4.2699 16.6176 5.97546 16.6176 8.2699H19.6176V20.7699C19.6176 21.5983 18.946 22.2699 18.1176 22.2699H13.1176C12.8415 22.2699 12.6176 22.046 12.6176 21.7699C12.6176 21.4938 12.8415 21.2699 13.1176 21.2699H18.1176C18.3937 21.2699 18.6176 21.046 18.6176 20.7699V9.2699H16.6176V11.2699H15.6176V9.2699H9.61755V11.2699H8.61755ZM12.6176 5.2699C11.0653 5.2699 9.61755 6.47362 9.61755 8.2699H15.6176C15.6176 6.56434 14.1601 5.2699 12.6176 5.2699Z" fill="#1F2026"/>
<path d="M8.11755 15.2699C8.39369 15.2699 8.61755 15.4938 8.61755 15.7699V18.2699H11.1176C11.3937 18.2699 11.6176 18.4938 11.6176 18.7699C11.6176 19.046 11.3937 19.2699 11.1176 19.2699H8.61755V21.7699C8.61755 22.046 8.39369 22.2699 8.11755 22.2699C7.84141 22.2699 7.61755 22.046 7.61755 21.7699V19.2699H5.11755C4.84141 19.2699 4.61755 19.046 4.61755 18.7699C4.61755 18.4938 4.84141 18.2699 5.11755 18.2699H7.61755V15.7699C7.61755 15.4938 7.84141 15.2699 8.11755 15.2699Z" fill="#1F2026"/>
</svg>
