<svg width="21" height="21" viewBox="0 0 21 21" fill="none" xmlns="http://www.w3.org/2000/svg">
<path d="M6.56755 2.74988C9.13547 2.74988 10.6176 4.90222 10.6176 4.90222C10.6176 4.90222 12.1026 2.74988 14.6676 2.74988C17.3226 2.74988 19.6176 4.81988 19.6176 7.69988C19.6176 11.9304 13.178 16.3696 10.9827 18.3102C10.7758 18.4931 10.4593 18.4931 10.2524 18.3102C8.05811 16.3708 1.61755 11.9302 1.61755 7.69988C1.61755 4.81988 3.91255 2.74988 6.56755 2.74988Z" fill="white" fill-opacity="0.6"/>
<path d="M1.61755 7.61474C1.61755 4.95285 3.76772 2.74988 6.48241 2.74988C8.6044 2.74988 9.97676 4.10864 10.6176 4.93661C11.2584 4.10864 12.6308 2.74988 14.7527 2.74988C17.4682 2.74988 19.6176 4.9529 19.6176 7.61474C19.6176 8.77975 19.1504 9.9361 18.471 11.0149C17.7892 12.0975 16.8696 13.1402 15.9076 14.0876C14.5743 15.4007 13.0933 16.5886 12.031 17.4406C11.5794 17.8028 11.2035 18.1043 10.9469 18.3289C10.7583 18.4938 10.4768 18.4938 10.2883 18.3289C10.0316 18.1043 9.6557 17.8028 9.20414 17.4406C8.14186 16.5886 6.66081 15.4007 5.32752 14.0876C4.36557 13.1402 3.44591 12.0975 2.76414 11.0149C2.08479 9.9361 1.61755 8.77975 1.61755 7.61474ZM6.48241 3.74988C4.32684 3.74988 2.61755 5.49826 2.61755 7.61474C2.61755 8.51731 2.98308 9.48595 3.61032 10.482C4.23514 11.4741 5.09588 12.4559 6.0292 13.3751C7.32788 14.6541 8.70178 15.7549 9.75151 16.596C10.0748 16.8551 10.3674 17.0895 10.6176 17.2969C10.8677 17.0895 11.1603 16.8551 11.4836 16.596C12.5334 15.7549 13.9073 14.6541 15.2059 13.3751C16.1393 12.4559 17 11.4741 17.6248 10.482C18.2521 9.48595 18.6176 8.51731 18.6176 7.61474C18.6176 5.49821 16.909 3.74988 14.7527 3.74988C12.6582 3.74988 11.4357 5.45199 11.1209 5.96016C10.8903 6.33238 10.3448 6.33237 10.1143 5.96015C9.79945 5.45198 8.57699 3.74988 6.48241 3.74988Z" fill="#1F2026"/>
</svg>
